<svg xmlns="http://www.w3.org/2000/svg" width="1600" height="1044" font-family="Noto Sans, Noto Sans Thai, Arial, sans-serif" font-size="11">
<rect width="1600" height="1044" fill="#fbfaf7"/>
<text x="40" y="40" font-size="20" font-weight="bold">When AI Expands Human Potential — Zenodo library graph (hub 10.5281/zenodo.22308201)</text>
<text x="40" y="62" fill="#555">rows = publication month (newest top) · latest versions only · solid arrow = continues · dashed = isSupplementTo · thin grey = references · built 2026-09-05 from Zenodo metadata (readout, not truth)</text>
<line x1="175.0" y1="148.0" x2="175.0" y2="724.0" stroke="#bbb" stroke-width="0.8" opacity="0.85"/>
<line x1="175.0" y1="148.0" x2="475.0" y2="436.0" stroke="#bbb" stroke-width="0.8" opacity="0.85"/>
<line x1="175.0" y1="148.0" x2="175.0" y2="436.0" stroke="#bbb" stroke-width="0.8" opacity="0.85"/>
<line x1="175.0" y1="148.0" x2="1375.0" y2="244.0" stroke="#bbb" stroke-width="0.8" opacity="0.85"/>
<line x1="175.0" y1="148.0" x2="475.0" y2="244.0" stroke="#bbb" stroke-width="0.8" opacity="0.85"/>
<line x1="175.0" y1="148.0" x2="175.0" y2="532.0" stroke="#bbb" stroke-width="0.8" opacity="0.85"/>
<line x1="475.0" y1="148.0" x2="175.0" y2="436.0" stroke="#bbb" stroke-width="0.8" opacity="0.85"/>
<line x1="475.0" y1="148.0" x2="175.0" y2="340.0" stroke="#bbb" stroke-width="0.8" opacity="0.85"/>
<line x1="475.0" y1="148.0" x2="475.0" y2="340.0" stroke="#bbb" stroke-width="0.8" opacity="0.85"/>
<line x1="475.0" y1="148.0" x2="1375.0" y2="340.0" stroke="#bbb" stroke-width="0.8" opacity="0.85"/>
<line x1="475.0" y1="148.0" x2="1375.0" y2="244.0" stroke="#bbb" stroke-width="0.8" opacity="0.85"/>
<line x1="475.0" y1="148.0" x2="175.0" y2="724.0" stroke="#bbb" stroke-width="0.8" opacity="0.85"/>
<line x1="775.0" y1="148.0" x2="175.0" y2="436.0" stroke="#bbb" stroke-width="0.8" opacity="0.85"/>
<line x1="775.0" y1="148.0" x2="175.0" y2="340.0" stroke="#bbb" stroke-width="0.8" opacity="0.85"/>
<line x1="775.0" y1="148.0" x2="475.0" y2="340.0" stroke="#bbb" stroke-width="0.8" opacity="0.85"/>
<line x1="775.0" y1="148.0" x2="1375.0" y2="244.0" stroke="#bbb" stroke-width="0.8" opacity="0.85"/>
<line x1="775.0" y1="148.0" x2="1075.0" y2="244.0" stroke="#bbb" stroke-width="0.8" opacity="0.85"/>
<line x1="775.0" y1="148.0" x2="775.0" y2="244.0" stroke="#bbb" stroke-width="0.8" opacity="0.85"/>
<line x1="775.0" y1="148.0" x2="175.0" y2="244.0" stroke="#bbb" stroke-width="0.8" opacity="0.85"/>
<line x1="775.0" y1="148.0" x2="475.0" y2="436.0" stroke="#bbb" stroke-width="0.8" opacity="0.85"/>
<line x1="775.0" y1="148.0" x2="175.0" y2="724.0" stroke="#bbb" stroke-width="0.8" opacity="0.85"/>
<line x1="775.0" y1="148.0" x2="1075.0" y2="916.0" stroke="#bbb" stroke-width="0.8" opacity="0.85"/>
<line x1="775.0" y1="148.0" x2="775.0" y2="916.0" stroke="#bbb" stroke-width="0.8" opacity="0.85"/>
<line x1="775.0" y1="148.0" x2="475.0" y2="916.0" stroke="#bbb" stroke-width="0.8" opacity="0.85"/>
<line x1="1075.0" y1="148.0" x2="1375.0" y2="340.0" stroke="#bbb" stroke-width="0.8" opacity="0.85"/>
<line x1="1075.0" y1="148.0" x2="175.0" y2="436.0" stroke="#bbb" stroke-width="0.8" opacity="0.85"/>
<line x1="1075.0" y1="148.0" x2="175.0" y2="340.0" stroke="#bbb" stroke-width="0.8" opacity="0.85"/>
<line x1="1075.0" y1="148.0" x2="475.0" y2="340.0" stroke="#bbb" stroke-width="0.8" opacity="0.85"/>
<line x1="1375.0" y1="148.0" x2="175.0" y2="436.0" stroke="#bbb" stroke-width="0.8" opacity="0.85"/>
<line x1="1375.0" y1="148.0" x2="175.0" y2="340.0" stroke="#bbb" stroke-width="0.8" opacity="0.85"/>
<line x1="1375.0" y1="148.0" x2="475.0" y2="340.0" stroke="#bbb" stroke-width="0.8" opacity="0.85"/>
<line x1="175.0" y1="244.0" x2="775.0" y2="244.0" stroke="#b03a2e" stroke-width="2.2" opacity="0.85"/>
<line x1="175.0" y1="244.0" x2="1375.0" y2="244.0" stroke="#bbb" stroke-width="0.8" opacity="0.85"/>
<line x1="175.0" y1="244.0" x2="1075.0" y2="244.0" stroke="#bbb" stroke-width="0.8" opacity="0.85"/>
<line x1="175.0" y1="244.0" x2="175.0" y2="436.0" stroke="#bbb" stroke-width="0.8" opacity="0.85"/>
<line x1="175.0" y1="244.0" x2="475.0" y2="340.0" stroke="#bbb" stroke-width="0.8" opacity="0.85"/>
<line x1="175.0" y1="244.0" x2="175.0" y2="340.0" stroke="#bbb" stroke-width="0.8" opacity="0.85"/>
<line x1="175.0" y1="244.0" x2="1375.0" y2="340.0" stroke="#bbb" stroke-width="0.8" opacity="0.85"/>
<line x1="175.0" y1="244.0" x2="175.0" y2="724.0" stroke="#bbb" stroke-width="0.8" opacity="0.85"/>
<line x1="475.0" y1="244.0" x2="1375.0" y2="244.0" stroke="#1f618d" stroke-width="1.8" stroke-dasharray="6,4" opacity="0.85"/>
<line x1="475.0" y1="244.0" x2="1075.0" y2="244.0" stroke="#1f618d" stroke-width="1.8" stroke-dasharray="6,4" opacity="0.85"/>
<line x1="475.0" y1="244.0" x2="775.0" y2="244.0" stroke="#1f618d" stroke-width="1.8" stroke-dasharray="6,4" opacity="0.85"/>
<line x1="475.0" y1="244.0" x2="175.0" y2="436.0" stroke="#bbb" stroke-width="0.8" opacity="0.85"/>
<line x1="475.0" y1="244.0" x2="475.0" y2="340.0" stroke="#bbb" stroke-width="0.8" opacity="0.85"/>
<line x1="475.0" y1="244.0" x2="175.0" y2="340.0" stroke="#bbb" stroke-width="0.8" opacity="0.85"/>
<line x1="475.0" y1="244.0" x2="175.0" y2="724.0" stroke="#bbb" stroke-width="0.8" opacity="0.85"/>
<line x1="475.0" y1="244.0" x2="1375.0" y2="340.0" stroke="#bbb" stroke-width="0.8" opacity="0.85"/>
<line x1="775.0" y1="244.0" x2="175.0" y2="436.0" stroke="#bbb" stroke-width="0.8" opacity="0.85"/>
<line x1="775.0" y1="244.0" x2="1075.0" y2="244.0" stroke="#b03a2e" stroke-width="2.2" opacity="0.85"/>
<line x1="775.0" y1="244.0" x2="1375.0" y2="244.0" stroke="#bbb" stroke-width="0.8" opacity="0.85"/>
<line x1="775.0" y1="244.0" x2="475.0" y2="340.0" stroke="#bbb" stroke-width="0.8" opacity="0.85"/>
<line x1="775.0" y1="244.0" x2="175.0" y2="340.0" stroke="#bbb" stroke-width="0.8" opacity="0.85"/>
<line x1="775.0" y1="244.0" x2="175.0" y2="724.0" stroke="#bbb" stroke-width="0.8" opacity="0.85"/>
<line x1="775.0" y1="244.0" x2="1375.0" y2="340.0" stroke="#bbb" stroke-width="0.8" opacity="0.85"/>
<line x1="1075.0" y1="244.0" x2="175.0" y2="436.0" stroke="#bbb" stroke-width="0.8" opacity="0.85"/>
<line x1="1075.0" y1="244.0" x2="1375.0" y2="244.0" stroke="#b03a2e" stroke-width="2.2" opacity="0.85"/>
<line x1="1075.0" y1="244.0" x2="475.0" y2="340.0" stroke="#bbb" stroke-width="0.8" opacity="0.85"/>
<line x1="1075.0" y1="244.0" x2="175.0" y2="340.0" stroke="#bbb" stroke-width="0.8" opacity="0.85"/>
<line x1="1075.0" y1="244.0" x2="175.0" y2="724.0" stroke="#bbb" stroke-width="0.8" opacity="0.85"/>
<line x1="1075.0" y1="244.0" x2="1375.0" y2="340.0" stroke="#bbb" stroke-width="0.8" opacity="0.85"/>
<line x1="1375.0" y1="244.0" x2="175.0" y2="436.0" stroke="#bbb" stroke-width="0.8" opacity="0.85"/>
<line x1="1375.0" y1="244.0" x2="475.0" y2="340.0" stroke="#bbb" stroke-width="0.8" opacity="0.85"/>
<line x1="1375.0" y1="244.0" x2="175.0" y2="340.0" stroke="#bbb" stroke-width="0.8" opacity="0.85"/>
<line x1="1375.0" y1="244.0" x2="1375.0" y2="340.0" stroke="#bbb" stroke-width="0.8" opacity="0.85"/>
<line x1="1375.0" y1="244.0" x2="175.0" y2="724.0" stroke="#bbb" stroke-width="0.8" opacity="0.85"/>
<line x1="175.0" y1="340.0" x2="175.0" y2="436.0" stroke="#bbb" stroke-width="0.8" opacity="0.85"/>
<line x1="175.0" y1="340.0" x2="475.0" y2="340.0" stroke="#bbb" stroke-width="0.8" opacity="0.85"/>
<line x1="175.0" y1="340.0" x2="1375.0" y2="340.0" stroke="#bbb" stroke-width="0.8" opacity="0.85"/>
<line x1="175.0" y1="340.0" x2="175.0" y2="724.0" stroke="#bbb" stroke-width="0.8" opacity="0.85"/>
<line x1="475.0" y1="340.0" x2="1375.0" y2="340.0" stroke="#bbb" stroke-width="0.8" opacity="0.85"/>
<line x1="475.0" y1="340.0" x2="175.0" y2="436.0" stroke="#bbb" stroke-width="0.8" opacity="0.85"/>
<line x1="475.0" y1="340.0" x2="175.0" y2="340.0" stroke="#bbb" stroke-width="0.8" opacity="0.85"/>
<line x1="475.0" y1="340.0" x2="175.0" y2="724.0" stroke="#bbb" stroke-width="0.8" opacity="0.85"/>
<line x1="775.0" y1="340.0" x2="1075.0" y2="724.0" stroke="#1f618d" stroke-width="1.8" stroke-dasharray="6,4" opacity="0.85"/>
<line x1="775.0" y1="340.0" x2="475.0" y2="340.0" stroke="#bbb" stroke-width="0.8" opacity="0.85"/>
<line x1="775.0" y1="340.0" x2="175.0" y2="436.0" stroke="#bbb" stroke-width="0.8" opacity="0.85"/>
<line x1="775.0" y1="340.0" x2="175.0" y2="340.0" stroke="#bbb" stroke-width="0.8" opacity="0.85"/>
<line x1="775.0" y1="340.0" x2="1375.0" y2="340.0" stroke="#bbb" stroke-width="0.8" opacity="0.85"/>
<line x1="775.0" y1="340.0" x2="175.0" y2="724.0" stroke="#bbb" stroke-width="0.8" opacity="0.85"/>
<line x1="1075.0" y1="340.0" x2="1075.0" y2="724.0" stroke="#1f618d" stroke-width="1.8" stroke-dasharray="6,4" opacity="0.85"/>
<line x1="1075.0" y1="340.0" x2="475.0" y2="340.0" stroke="#bbb" stroke-width="0.8" opacity="0.85"/>
<line x1="1075.0" y1="340.0" x2="175.0" y2="436.0" stroke="#bbb" stroke-width="0.8" opacity="0.85"/>
<line x1="1075.0" y1="340.0" x2="175.0" y2="340.0" stroke="#bbb" stroke-width="0.8" opacity="0.85"/>
<line x1="1075.0" y1="340.0" x2="1375.0" y2="340.0" stroke="#bbb" stroke-width="0.8" opacity="0.85"/>
<line x1="1075.0" y1="340.0" x2="175.0" y2="724.0" stroke="#bbb" stroke-width="0.8" opacity="0.85"/>
<line x1="1375.0" y1="340.0" x2="175.0" y2="436.0" stroke="#bbb" stroke-width="0.8" opacity="0.85"/>
<line x1="1375.0" y1="340.0" x2="475.0" y2="340.0" stroke="#bbb" stroke-width="0.8" opacity="0.85"/>
<line x1="1375.0" y1="340.0" x2="175.0" y2="340.0" stroke="#bbb" stroke-width="0.8" opacity="0.85"/>
<line x1="1375.0" y1="340.0" x2="175.0" y2="724.0" stroke="#bbb" stroke-width="0.8" opacity="0.85"/>
<line x1="175.0" y1="436.0" x2="475.0" y2="340.0" stroke="#bbb" stroke-width="0.8" opacity="0.85"/>
<line x1="175.0" y1="436.0" x2="175.0" y2="340.0" stroke="#bbb" stroke-width="0.8" opacity="0.85"/>
<line x1="175.0" y1="436.0" x2="175.0" y2="724.0" stroke="#bbb" stroke-width="0.8" opacity="0.85"/>
<line x1="175.0" y1="436.0" x2="1375.0" y2="340.0" stroke="#bbb" stroke-width="0.8" opacity="0.85"/>
<line x1="475.0" y1="436.0" x2="175.0" y2="436.0" stroke="#bbb" stroke-width="0.8" opacity="0.85"/>
<line x1="475.0" y1="436.0" x2="475.0" y2="340.0" stroke="#bbb" stroke-width="0.8" opacity="0.85"/>
<line x1="475.0" y1="436.0" x2="175.0" y2="340.0" stroke="#bbb" stroke-width="0.8" opacity="0.85"/>
<line x1="475.0" y1="436.0" x2="1375.0" y2="340.0" stroke="#bbb" stroke-width="0.8" opacity="0.85"/>
<line x1="475.0" y1="436.0" x2="175.0" y2="724.0" stroke="#bbb" stroke-width="0.8" opacity="0.85"/>
<line x1="175.0" y1="532.0" x2="175.0" y2="724.0" stroke="#b03a2e" stroke-width="2.2" opacity="0.85"/>
<line x1="175.0" y1="532.0" x2="475.0" y2="724.0" stroke="#bbb" stroke-width="0.8" opacity="0.85"/>
<line x1="175.0" y1="628.0" x2="175.0" y2="436.0" stroke="#bbb" stroke-width="0.8" opacity="0.85"/>
<line x1="175.0" y1="628.0" x2="475.0" y2="340.0" stroke="#bbb" stroke-width="0.8" opacity="0.85"/>
<line x1="175.0" y1="628.0" x2="175.0" y2="340.0" stroke="#bbb" stroke-width="0.8" opacity="0.85"/>
<line x1="175.0" y1="628.0" x2="175.0" y2="724.0" stroke="#bbb" stroke-width="0.8" opacity="0.85"/>
<line x1="175.0" y1="628.0" x2="1375.0" y2="340.0" stroke="#bbb" stroke-width="0.8" opacity="0.85"/>
<line x1="175.0" y1="724.0" x2="175.0" y2="436.0" stroke="#bbb" stroke-width="0.8" opacity="0.85"/>
<line x1="175.0" y1="724.0" x2="475.0" y2="340.0" stroke="#bbb" stroke-width="0.8" opacity="0.85"/>
<line x1="175.0" y1="724.0" x2="175.0" y2="340.0" stroke="#bbb" stroke-width="0.8" opacity="0.85"/>
<line x1="175.0" y1="724.0" x2="1375.0" y2="340.0" stroke="#bbb" stroke-width="0.8" opacity="0.85"/>
<line x1="475.0" y1="724.0" x2="175.0" y2="436.0" stroke="#bbb" stroke-width="0.8" opacity="0.85"/>
<line x1="475.0" y1="724.0" x2="475.0" y2="340.0" stroke="#bbb" stroke-width="0.8" opacity="0.85"/>
<line x1="475.0" y1="724.0" x2="175.0" y2="340.0" stroke="#bbb" stroke-width="0.8" opacity="0.85"/>
<line x1="475.0" y1="724.0" x2="175.0" y2="724.0" stroke="#bbb" stroke-width="0.8" opacity="0.85"/>
<line x1="475.0" y1="724.0" x2="1375.0" y2="340.0" stroke="#bbb" stroke-width="0.8" opacity="0.85"/>
<line x1="775.0" y1="724.0" x2="175.0" y2="436.0" stroke="#bbb" stroke-width="0.8" opacity="0.85"/>
<line x1="775.0" y1="724.0" x2="475.0" y2="340.0" stroke="#bbb" stroke-width="0.8" opacity="0.85"/>
<line x1="775.0" y1="724.0" x2="175.0" y2="340.0" stroke="#bbb" stroke-width="0.8" opacity="0.85"/>
<line x1="775.0" y1="724.0" x2="1375.0" y2="340.0" stroke="#bbb" stroke-width="0.8" opacity="0.85"/>
<line x1="775.0" y1="724.0" x2="175.0" y2="724.0" stroke="#bbb" stroke-width="0.8" opacity="0.85"/>
<line x1="1075.0" y1="724.0" x2="175.0" y2="436.0" stroke="#bbb" stroke-width="0.8" opacity="0.85"/>
<line x1="1075.0" y1="724.0" x2="475.0" y2="340.0" stroke="#bbb" stroke-width="0.8" opacity="0.85"/>
<line x1="1075.0" y1="724.0" x2="175.0" y2="340.0" stroke="#bbb" stroke-width="0.8" opacity="0.85"/>
<line x1="1075.0" y1="724.0" x2="1375.0" y2="340.0" stroke="#bbb" stroke-width="0.8" opacity="0.85"/>
<line x1="1075.0" y1="724.0" x2="175.0" y2="724.0" stroke="#bbb" stroke-width="0.8" opacity="0.85"/>
<line x1="1375.0" y1="724.0" x2="175.0" y2="436.0" stroke="#bbb" stroke-width="0.8" opacity="0.85"/>
<line x1="1375.0" y1="724.0" x2="475.0" y2="340.0" stroke="#bbb" stroke-width="0.8" opacity="0.85"/>
<line x1="1375.0" y1="724.0" x2="175.0" y2="340.0" stroke="#bbb" stroke-width="0.8" opacity="0.85"/>
<line x1="1375.0" y1="724.0" x2="1375.0" y2="340.0" stroke="#bbb" stroke-width="0.8" opacity="0.85"/>
<line x1="1375.0" y1="724.0" x2="175.0" y2="724.0" stroke="#bbb" stroke-width="0.8" opacity="0.85"/>
<line x1="175.0" y1="820.0" x2="175.0" y2="436.0" stroke="#bbb" stroke-width="0.8" opacity="0.85"/>
<line x1="175.0" y1="820.0" x2="475.0" y2="340.0" stroke="#bbb" stroke-width="0.8" opacity="0.85"/>
<line x1="175.0" y1="820.0" x2="175.0" y2="340.0" stroke="#bbb" stroke-width="0.8" opacity="0.85"/>
<line x1="175.0" y1="820.0" x2="1375.0" y2="340.0" stroke="#bbb" stroke-width="0.8" opacity="0.85"/>
<line x1="175.0" y1="820.0" x2="175.0" y2="724.0" stroke="#bbb" stroke-width="0.8" opacity="0.85"/>
<line x1="475.0" y1="820.0" x2="175.0" y2="436.0" stroke="#bbb" stroke-width="0.8" opacity="0.85"/>
<line x1="475.0" y1="820.0" x2="475.0" y2="340.0" stroke="#bbb" stroke-width="0.8" opacity="0.85"/>
<line x1="475.0" y1="820.0" x2="175.0" y2="340.0" stroke="#bbb" stroke-width="0.8" opacity="0.85"/>
<line x1="475.0" y1="820.0" x2="1375.0" y2="340.0" stroke="#bbb" stroke-width="0.8" opacity="0.85"/>
<line x1="475.0" y1="820.0" x2="175.0" y2="724.0" stroke="#bbb" stroke-width="0.8" opacity="0.85"/>
<line x1="175.0" y1="916.0" x2="175.0" y2="724.0" stroke="#bbb" stroke-width="0.8" opacity="0.85"/>
<line x1="475.0" y1="916.0" x2="175.0" y2="724.0" stroke="#bbb" stroke-width="0.8" opacity="0.85"/>
<line x1="775.0" y1="916.0" x2="175.0" y2="724.0" stroke="#bbb" stroke-width="0.8" opacity="0.85"/>
<text x="8" y="134" font-size="10" fill="#888" transform="rotate(-90 8,134)">2026-09</text>
<a href="https://doi.org/10.5281/zenodo.22339909"><rect x="40" y="120" width="270" height="56" rx="6" fill="#fff" stroke="#333"/>
<text x="48" y="138" font-weight="bold">CTSA Human-Return Readout: A Session-Boundar</text>
<text x="48" y="153">y Measurement Architecture for Retained Human </text>
<text x="48" y="168" fill="#1f618d">10.5281/zenodo.22339909 · 2026-09-05</text></a>
<a href="https://doi.org/10.5281/zenodo.22307841"><rect x="340" y="120" width="270" height="56" rx="6" fill="#fff" stroke="#333"/>
<text x="348" y="138" font-weight="bold">Rigour Without Infrastructure: Three Proposi</text>
<text x="348" y="153">tions on Claim-Card Discipline as a Substitute</text>
<text x="348" y="168" fill="#1f618d">10.5281/zenodo.22307841 · 2026-09-05</text></a>
<a href="https://doi.org/10.5281/zenodo.22331922"><rect x="640" y="120" width="270" height="56" rx="6" fill="#fff" stroke="#333"/>
<text x="648" y="138" font-weight="bold">Epistemic Fusion or Epistemic Tunnel: A Phen</text>
<text x="648" y="153">omenology-Anchored, Global-Literature-Constrai</text>
<text x="648" y="168" fill="#1f618d">10.5281/zenodo.22331922 · 2026-09-05</text></a>
<a href="https://doi.org/10.5281/zenodo.22340255"><rect x="940" y="120" width="270" height="56" rx="6" fill="#fff" stroke="#333"/>
<text x="948" y="138" font-weight="bold">glosa — Rigour Without Infrastructure: A Sta</text>
<text x="948" y="153">ndalone Scholar Methodology for Human–AI Knowl</text>
<text x="948" y="168" fill="#1f618d">10.5281/zenodo.22340255 · 2026-09-05</text></a>
<a href="https://doi.org/10.5281/zenodo.22334420"><rect x="1240" y="120" width="270" height="56" rx="6" fill="#fff" stroke="#333"/>
<text x="1248" y="138" font-weight="bold">ปูมกล่องดำ — บันทึกเสียงดิบ ข้อค้นพบ และคำถา</text>
<text x="1248" y="153">มรายวันของ เยาฮารี แหละตี (Blackbox Log, Yaoha</text>
<text x="1248" y="168" fill="#1f618d">10.5281/zenodo.22334420 · 2026-09-05</text></a>
<a href="https://doi.org/10.5281/zenodo.22308072"><rect x="40" y="216" width="270" height="56" rx="6" fill="#fff" stroke="#333"/>
<text x="48" y="234" font-weight="bold">The Epistemic Chain Reaction: Human-AI Multi</text>
<text x="48" y="249">plication from Questions to Readout-Distinguis</text>
<text x="48" y="264" fill="#1f618d">10.5281/zenodo.22308072 · 2026-09-04</text></a>
<a href="https://doi.org/10.5281/zenodo.22308066"><rect x="340" y="216" width="270" height="56" rx="6" fill="#fff" stroke="#333"/>
<text x="348" y="234" font-weight="bold">State of Evidence for the Readout Hypothesis</text>
<text x="348" y="249">-Generation Programme: A Shared Evidence Regis</text>
<text x="348" y="264" fill="#1f618d">10.5281/zenodo.22308066 · 2026-09-04</text></a>
<a href="https://doi.org/10.5281/zenodo.22307564"><rect x="640" y="216" width="270" height="56" rx="6" fill="#fff" stroke="#333"/>
<text x="648" y="234" font-weight="bold">Before Evidence Can Decide: Candidate-Set Fo</text>
<text x="648" y="249">rmation, Discovery Routing, and Unconceived Al</text>
<text x="648" y="264" fill="#1f618d">10.5281/zenodo.22307564 · 2026-09-04</text></a>
<a href="https://doi.org/10.5281/zenodo.22307561"><rect x="940" y="216" width="270" height="56" rx="6" fill="#fff" stroke="#333"/>
<text x="948" y="234" font-weight="bold">Knowledge Topology and the First Passage to </text>
<text x="948" y="249">Usable Hypotheses: A Readout Theory of Discove</text>
<text x="948" y="264" fill="#1f618d">10.5281/zenodo.22307561 · 2026-09-04</text></a>
<a href="https://doi.org/10.5281/zenodo.22307148"><rect x="1240" y="216" width="270" height="56" rx="6" fill="#fff" stroke="#333"/>
<text x="1248" y="234" font-weight="bold">From Problem to Hypothesis: Dynamic Semantic</text>
<text x="1248" y="249"> Mobility, Bounded Knowers, and the Readout-Di</text>
<text x="1248" y="264" fill="#1f618d">10.5281/zenodo.22307148 · 2026-09-04</text></a>
<text x="8" y="326" font-size="10" fill="#888" transform="rotate(-90 8,326)">2026-08</text>
<a href="https://doi.org/10.5281/zenodo.22301318"><rect x="40" y="312" width="270" height="56" rx="6" fill="#fff" stroke="#333"/>
<text x="48" y="330" font-weight="bold">The Readout Condition: Distinguishability, A</text>
<text x="48" y="345">ccess, and Epistemic Warrant</text>
<text x="48" y="360" fill="#1f618d">10.5281/zenodo.22301318 · 2026-08-31</text></a>
<a href="https://doi.org/10.5281/zenodo.22301202"><rect x="340" y="312" width="270" height="56" rx="6" fill="#fff" stroke="#333"/>
<text x="348" y="330" font-weight="bold">Written by AI. Still True. Knower Fetishism,</text>
<text x="348" y="345"> Epistemic Pedigree, and the Human Face as a B</text>
<text x="348" y="360" fill="#1f618d">10.5281/zenodo.22301202 · 2026-08-31</text></a>
<a href="https://doi.org/10.5281/zenodo.22302410"><rect x="640" y="312" width="270" height="56" rx="6" fill="#fff" stroke="#333"/>
<text x="648" y="330" font-weight="bold">ปัญญาประดิษฐ์กับอารยธรรมความรู้: การลืมสถานะ</text>
<text x="648" y="345">การเป็นตัวเลือกและความรับผิดชอบของมนุษย์ในสังค</text>
<text x="648" y="360" fill="#1f618d">10.5281/zenodo.22302410 · 2026-08-29</text></a>
<a href="https://doi.org/10.5281/zenodo.22301886"><rect x="940" y="312" width="270" height="56" rx="6" fill="#fff" stroke="#333"/>
<text x="948" y="330" font-weight="bold">ปัญญาประดิษฐ์กับอารยธรรมความรู้: การลืมสถานะ</text>
<text x="948" y="345">การเป็นตัวเลือกและความรับผิดชอบของมนุษย์ในสังค</text>
<text x="948" y="360" fill="#1f618d">10.5281/zenodo.22301886 · 2026-08-29</text></a>
<a href="https://doi.org/10.5281/zenodo.22163849"><rect x="1240" y="312" width="270" height="56" rx="6" fill="#fff" stroke="#333"/>
<text x="1248" y="330" font-weight="bold">The Standalone Scholar: A Dual-Track Archite</text>
<text x="1248" y="345">cture for AI-Native Scholarship</text>
<text x="1248" y="360" fill="#1f618d">10.5281/zenodo.22163849 · 2026-08-29</text></a>
<text x="8" y="422" font-size="10" fill="#888" transform="rotate(-90 8,422)">2026-07</text>
<a href="https://doi.org/10.5281/zenodo.21529456"><rect x="40" y="408" width="270" height="56" rx="6" fill="#fff" stroke="#333"/>
<text x="48" y="426" font-weight="bold">Readout Genesis Standalone Synthesis: Inform</text>
<text x="48" y="441">ation Epistemic Foundation, Conditioned Agency</text>
<text x="48" y="456" fill="#1f618d">10.5281/zenodo.21529456 · 2026-07-24</text></a>
<a href="https://doi.org/10.5281/zenodo.21425420"><rect x="340" y="408" width="270" height="56" rx="6" fill="#fff" stroke="#333"/>
<text x="348" y="426" font-weight="bold">Experience Is the Human LoRA: A Readout–Rete</text>
<text x="348" y="441">ntion Theory of Selective Model Change</text>
<text x="348" y="456" fill="#1f618d">10.5281/zenodo.21425420 · 2026-07-18</text></a>
<text x="8" y="518" font-size="10" fill="#888" transform="rotate(-90 8,518)">2026-06</text>
<a href="https://doi.org/10.5281/zenodo.22341297"><rect x="40" y="504" width="270" height="56" rx="6" fill="#fff" stroke="#333"/>
<text x="48" y="522" font-weight="bold">Human Learning as Epistemic Architecture: A </text>
<text x="48" y="537">Method for Word Mapping, Life-Concept Graphs, </text>
<text x="48" y="552" fill="#1f618d">10.5281/zenodo.22341297 · 2026-06-28</text></a>
<text x="8" y="614" font-size="10" fill="#888" transform="rotate(-90 8,614)">2026-04</text>
<a href="https://doi.org/10.5281/zenodo.19640361"><rect x="40" y="600" width="270" height="56" rx="6" fill="#fff" stroke="#333"/>
<text x="48" y="618" font-weight="bold">Mind as Information Horizon: From Primordial</text>
<text x="48" y="633"> Difference to Expertise Formation on the Disc</text>
<text x="48" y="648" fill="#1f618d">10.5281/zenodo.19640361 · 2026-04-18</text></a>
<text x="8" y="710" font-size="10" fill="#888" transform="rotate(-90 8,710)">2026-03</text>
<a href="https://doi.org/10.5281/zenodo.19215748"><rect x="40" y="696" width="270" height="56" rx="6" fill="#fff" stroke="#333"/>
<text x="48" y="714" font-weight="bold">When AI Expands Human Potential: Reflective </text>
<text x="48" y="729">Dissonance, Epistemic Agency, and Constraint</text>
<text x="48" y="744" fill="#1f618d">10.5281/zenodo.19215748 · 2026-03-25</text></a>
<a href="https://doi.org/10.5281/zenodo.19205869"><rect x="340" y="696" width="270" height="56" rx="6" fill="#fff" stroke="#333"/>
<text x="348" y="714" font-weight="bold">Constraint-First Epistemology: Normativity, </text>
<text x="348" y="729">Conditioned Agency, and the Non-Zero Kantian F</text>
<text x="348" y="744" fill="#1f618d">10.5281/zenodo.19205869 · 2026-03-23</text></a>
<a href="https://doi.org/10.5281/zenodo.19176260"><rect x="640" y="696" width="270" height="56" rx="6" fill="#fff" stroke="#333"/>
<text x="648" y="714" font-weight="bold">The Architecture of Mediated Agency: Beyond </text>
<text x="648" y="729">the Misframing of Free Will and Truth</text>
<text x="648" y="744" fill="#1f618d">10.5281/zenodo.19176260 · 2026-03-23</text></a>
<a href="https://doi.org/10.5281/zenodo.18943971"><rect x="940" y="696" width="270" height="56" rx="6" fill="#fff" stroke="#333"/>
<text x="948" y="714" font-weight="bold">The Civilization of Knowledge: Who Has the A</text>
<text x="948" y="729">uthority to Interpret the World</text>
<text x="948" y="744" fill="#1f618d">10.5281/zenodo.18943971 · 2026-03-10</text></a>
<a href="https://doi.org/10.5281/zenodo.18925129"><rect x="1240" y="696" width="270" height="56" rx="6" fill="#fff" stroke="#333"/>
<text x="1248" y="714" font-weight="bold">Knowledge as Stabilized Translation: Toward </text>
<text x="1248" y="729">an Observer-Constrained Epistemology</text>
<text x="1248" y="744" fill="#1f618d">10.5281/zenodo.18925129 · 2026-03-09</text></a>
<text x="8" y="806" font-size="10" fill="#888" transform="rotate(-90 8,806)">2026-02</text>
<a href="https://doi.org/10.5281/zenodo.18711408"><rect x="40" y="792" width="270" height="56" rx="6" fill="#fff" stroke="#333"/>
<text x="48" y="810" font-weight="bold">Learning Under Generative Abundance: A Struc</text>
<text x="48" y="825">tural Law of Epistemic Stabilization</text>
<text x="48" y="840" fill="#1f618d">10.5281/zenodo.18711408 · 2026-02-20</text></a>
<a href="https://doi.org/10.5281/zenodo.18517054"><rect x="340" y="792" width="270" height="56" rx="6" fill="#fff" stroke="#333"/>
<text x="348" y="810" font-weight="bold">AI, Translation, and Access to Event-Specifi</text>
<text x="348" y="825">c Contex</text>
<text x="348" y="840" fill="#1f618d">10.5281/zenodo.18517054 · 2026-02-07</text></a>
<text x="8" y="902" font-size="10" fill="#888" transform="rotate(-90 8,902)">2025-10</text>
<a href="https://doi.org/10.5281/zenodo.22308448"><rect x="40" y="888" width="270" height="56" rx="6" fill="#fff" stroke="#333"/>
<text x="48" y="906" font-weight="bold">AI–Cognitive Interaction: Activating Youth P</text>
<text x="48" y="921">otential through Reflective Dialogue and Lingu</text>
<text x="48" y="936" fill="#1f618d">10.5281/zenodo.22308448 · 2025-10-09</text></a>
<a href="https://doi.org/10.5281/zenodo.22308446"><rect x="340" y="888" width="270" height="56" rx="6" fill="#fff" stroke="#333"/>
<text x="348" y="906" font-weight="bold">Operational Linguistic Wisdom: Elective Conn</text>
<text x="348" y="921">ectivity and Linguistic Capital Activation in </text>
<text x="348" y="936" fill="#1f618d">10.5281/zenodo.22308446 · 2025-10-08</text></a>
<a href="https://doi.org/10.5281/zenodo.22308451"><rect x="640" y="888" width="270" height="56" rx="6" fill="#fff" stroke="#333"/>
<text x="648" y="906" font-weight="bold">The Dialogue as the Ground of Enlightenment:</text>
<text x="648" y="921"> Religious and Cognitive Frameworks for Unders</text>
<text x="648" y="936" fill="#1f618d">10.5281/zenodo.22308451 · 2025-10-06</text></a>
<a href="https://doi.org/10.5281/zenodo.17280546"><rect x="940" y="888" width="270" height="56" rx="6" fill="#fff" stroke="#333"/>
<text x="948" y="906" font-weight="bold">The Language Bridge: Expanding Human Potenti</text>
<text x="948" y="921">al in the Age of AI</text>
<text x="948" y="936" fill="#1f618d">10.5281/zenodo.17280546 · 2025-10-06</text></a>
</svg>